<?xml version="1.0" encoding="utf-8"?>
<!-- Generator: Adobe Illustrator 22.0.1, SVG Export Plug-In . SVG Version: 6.00 Build 0)  -->
<svg version="1.1" id="Layer_1" xmlns="http://www.w3.org/2000/svg" xmlns:xlink="http://www.w3.org/1999/xlink" x="0px" y="0px"
	 viewBox="0 0 215 90" style="enable-background:new 0 0 215 90;" xml:space="preserve">
<style type="text/css">
	.st0{fill:#4E2E87;}
	.st1{fill:#03CA10;}
</style>
<g>
	<g>
		<path id="A_1_" class="st0" d="M28.6,22.4h6.1l15.8,36c0.8,1.8,1.6,3,2.4,3.6c0.8,0.6,1.9,0.9,3.2,0.9h0.8v2.6H38.7v-2.6
			c0.6,0,1.2-0.1,1.7-0.1c1.2,0,1.9-0.1,2.3-0.3c0.7-0.4,1.1-0.9,1.1-1.5c0-0.4-0.3-1.5-1-3.2l-3.4-8.4H20.9l-4,9.4
			c-0.4,1-0.6,1.6-0.6,2c0,0.4,0.1,0.8,0.4,1.1c0.3,0.3,0.6,0.5,1,0.7c0.4,0.2,1.1,0.2,2.1,0.2c0.7,0,1.2,0,1.6,0v2.6H6.2v-2.6
			c1.4,0,2.4-0.1,3.1-0.4c0.6-0.2,1.2-0.6,1.6-1.1c0.5-0.5,1.1-1.6,1.8-3.3L28.6,22.4z M22.2,46.5h15.8l-7.8-18.5L22.2,46.5z"/>
		<path id="x_1_" class="st1" d="M52.6,28h14.1v2.3h-1c-0.5,0-1.1,0.1-1.6,0.2c-0.3,0.1-0.5,0.2-0.7,0.4c-0.2,0.2-0.3,0.4-0.3,0.6
			c0,0.4,0.4,1.1,1.1,2l4,5l4.8-5c0.9-0.9,1.3-1.7,1.3-2.1c0-0.3-0.2-0.6-0.5-0.8c-0.3-0.2-0.9-0.3-1.9-0.3h-1.1V28h12v2.3
			c-1.2,0.1-2.2,0.3-3.1,0.7s-1.9,1.3-3,2.5l-6.5,6.7l8,9.1l0.3,0.4c0.8,1,1.7,1.8,2.7,2.5c0.5,0.4,1.4,0.5,2.5,0.6v2.3H70v-2.3h1.2
			c0.9,0,1.5-0.1,1.7-0.2c0.4-0.2,0.6-0.5,0.6-1c0-0.4-0.5-1.2-1.4-2.3l-5.1-6.2l-5.7,6.2l-0.6,0.7l-0.3,0.3c-0.5,0.5-0.7,1-0.7,1.4
			c0,0.4,0.1,0.6,0.4,0.8c0.3,0.2,0.9,0.3,1.9,0.3h1.1v2.3H51.5v-2.3c0.9,0,1.6-0.1,2.2-0.3c0.5-0.2,1.1-0.5,1.5-0.8
			C56,51,56.6,50.4,57,50l8.2-8.5l-7-8c-0.9-1-1.6-1.7-2.1-2.1c-0.5-0.4-1-0.7-1.5-0.9c-0.5-0.2-1.2-0.2-2-0.2L52.6,28z"/>
		<path id="z_1_" class="st1" d="M89.5,28H110v2.4L91,52.5h4.7c3.7,0,6.3-0.4,7.9-1.3c2.2-1.2,3.8-3.3,4.9-6.3l2.5,0.9l-3.5,9.3
			H84.8v-2.4l19-21.9h-5.6c-2.6,0-4.6,0.5-6,1.4c-1.4,0.9-2.8,2.7-4,5.2l-2.4-1.2L89.5,28z"/>
		<path id="o_1_" class="st0" d="M127.6,27.4c2.7,0,5.1,0.6,7.1,1.7s3.6,2.8,4.7,5c1.2,2.2,1.7,4.7,1.7,7.5s-0.6,5.3-1.8,7.5
			c-1.2,2.2-2.8,3.9-4.8,5c-2,1.1-4.5,1.7-7.3,1.7c-4.5,0-7.9-1.4-10.2-4.2c-2.3-2.8-3.4-6.1-3.4-10c0-2.8,0.6-5.3,1.8-7.4
			c1.2-2.2,2.8-3.8,4.9-5C122.6,28,125,27.4,127.6,27.4z M127.4,30.1c-2.1,0-3.9,0.8-5.4,2.5c-1.9,2.1-2.8,5.1-2.8,9.2
			c0,3.9,0.8,6.8,2.4,8.8c1.4,1.8,3.4,2.7,5.8,2.7c1.6,0,3-0.4,4.2-1.3c1.2-0.8,2.2-2.2,3-4c0.8-1.8,1.1-4,1.1-6.5
			c0-2.4-0.4-4.6-1.2-6.5c-0.6-1.5-1.6-2.7-2.9-3.6C130.5,30.5,129,30.1,127.4,30.1z"/>
		<path id="n_1_" class="st0" d="M145.7,32.1v-2.3c1.7-0.2,2.9-0.4,3.8-0.7c0.8-0.3,2-0.8,3.6-1.7h2v5.3c2.5-2.1,4.6-3.5,6.3-4.2
			c1.7-0.7,3.5-1.1,5.3-1.1c1.5,0,2.9,0.3,4.1,0.8c1.2,0.5,2.1,1.2,2.9,2.1c0.7,0.9,1.2,1.9,1.5,3c0.2,0.7,0.2,1.7,0.2,3.1v12.3
			c0,1.5,0.1,2.4,0.3,2.9c0.2,0.4,0.6,0.7,1,0.9c0.5,0.2,1.6,0.3,3.5,0.3v2.4h-14.5v-2.4h0.8c1.4,0,2.3-0.1,2.8-0.4
			c0.5-0.2,0.8-0.6,1.1-1.1c0.2-0.5,0.3-1.4,0.3-2.9V38.1c0-2.1-0.2-3.6-0.5-4.4c-0.3-0.8-0.9-1.5-1.8-2c-0.8-0.5-1.9-0.8-3.2-0.8
			c-1.5,0-3.1,0.4-4.9,1.2c-1.7,0.8-3.4,1.9-5,3.4v12.9c0,1.5,0.1,2.4,0.3,2.9c0.2,0.5,0.6,0.9,1,1.1c0.3,0.2,1.2,0.3,2.7,0.3h0.8
			v2.4h-14.5v-2.4h0.7c1.4,0,2.3-0.1,2.9-0.4c0.5-0.2,0.9-0.7,1.1-1.3c0.1-0.3,0.2-1.3,0.2-3.1v-16L145.7,32.1z"/>
		<path id="s_1_" class="st0" d="M202.7,28h2l2.5,8.6l-2.5,0.8c-1-2.3-2.4-4.1-4.3-5.4c-1.8-1.3-3.7-2-5.5-2c-1.4,0-2.6,0.4-3.5,1
			c-0.9,0.7-1.4,1.5-1.3,2.4c0,0.9,0.3,1.6,1,2.2c0.6,0.6,2.1,1.4,4.3,2.2l5.5,1.9c3.1,1.1,5.2,2.3,6.3,3.5c1.1,1.3,1.7,2.7,1.7,4.3
			c0,1.4-0.4,2.7-1.2,3.9c-0.8,1.3-2,2.3-3.6,3c-1.6,0.7-3.4,1.1-5.4,1.1c-3.2,0-5.9-0.9-8.1-2.7l-0.6,2.1h-2l-3.5-9.2l2.5-1
			c1.7,2.7,3.3,4.6,4.9,5.7c2.1,1.6,4.4,2.4,6.9,2.4c1.6,0,3-0.4,4-1.3c1.1-0.9,1.6-1.8,1.6-2.9c0-0.9-0.3-1.7-1-2.4
			c-0.7-0.7-2-1.4-3.9-2.1l-6.5-2.4c-2.8-1-4.7-2.1-5.8-3.3c-1.1-1.2-1.6-2.6-1.6-4.1c0-1.9,0.9-3.6,2.7-5c1.8-1.5,4-2.2,6.8-2.2
			c1.4,0,2.7,0.2,3.8,0.6c1.1,0.4,2.2,1,3.3,1.8L202.7,28z"/>
	</g>
	<g>
		<g>
			<g>
				<path id="H_8_" class="st0" d="M76.9,72.5c0,0,0,0.1,0,0.1c0,0-0.1,0.1-0.1,0.1c-0.1,0-0.2,0-0.2,0.1c-0.1,0-0.2,0-0.4,0
					c-0.1,0-0.3,0-0.4,0c-0.1,0-0.2,0-0.2-0.1c-0.1,0-0.1,0-0.1-0.1c0,0,0-0.1,0-0.1v-5.3H70v5.3c0,0,0,0.1,0,0.1
					c0,0-0.1,0.1-0.1,0.1c-0.1,0-0.2,0-0.2,0.1c-0.3,0-0.5,0-0.8,0c-0.1,0-0.2,0-0.2-0.1c-0.1,0-0.1,0-0.1-0.1c0,0,0-0.1,0-0.1V61.1
					c0,0,0-0.1,0-0.1c0,0,0.1-0.1,0.1-0.1c0.1,0,0.2,0,0.2-0.1c0.3,0,0.5,0,0.8,0c0.1,0,0.2,0,0.2,0.1c0.1,0,0.1,0,0.1,0.1
					c0,0,0,0.1,0,0.1v4.8h5.4v-4.8c0,0,0-0.1,0-0.1c0,0,0.1-0.1,0.1-0.1c0.1,0,0.2,0,0.2-0.1c0.1,0,0.3,0,0.4,0c0.1,0,0.2,0,0.4,0
					c0.1,0,0.2,0,0.2,0.1c0.1,0,0.1,0,0.1,0.1c0,0,0,0.1,0,0.1L76.9,72.5z"/>
				<path id="o_10_" class="st0" d="M87.6,68.2c0,0.6-0.1,1.3-0.3,1.9c-0.2,0.5-0.4,1-0.8,1.5c-0.4,0.4-0.8,0.7-1.3,1
					c-0.5,0.2-1.1,0.3-1.8,0.3c-0.7,0-1.3-0.1-1.8-0.3c-0.5-0.2-0.9-0.5-1.3-0.9c-0.4-0.4-0.6-0.9-0.8-1.4c-0.2-0.6-0.2-1.2-0.2-1.9
					c0-0.6,0.1-1.3,0.3-1.9c0.2-0.5,0.4-1,0.8-1.5c0.4-0.4,0.8-0.7,1.3-1c0.5-0.2,1.1-0.3,1.8-0.3c0.7,0,1.3,0.1,1.8,0.3
					c0.5,0.2,0.9,0.5,1.3,0.9c0.4,0.4,0.6,0.9,0.8,1.4C87.5,66.9,87.6,67.6,87.6,68.2z M86,68.3c0-0.4,0-0.8-0.1-1.3
					c-0.1-0.4-0.2-0.7-0.4-1c-0.2-0.3-0.5-0.5-0.8-0.7c-0.3-0.2-0.7-0.3-1.2-0.3c-0.5,0-0.8,0.1-1.2,0.2c-0.3,0.2-0.6,0.4-0.8,0.7
					c-0.2,0.3-0.4,0.7-0.5,1c-0.1,0.4-0.2,0.9-0.2,1.3c0,0.4,0,0.9,0.1,1.3c0.1,0.4,0.2,0.7,0.4,1c0.2,0.3,0.5,0.5,0.8,0.7
					c0.3,0.2,0.7,0.3,1.2,0.3c0.4,0,0.8-0.1,1.2-0.2c0.3-0.2,0.6-0.4,0.8-0.7c0.2-0.3,0.4-0.7,0.5-1C86,69.2,86,68.8,86,68.3
					L86,68.3z"/>
				<path id="m_8_" class="st0" d="M102.1,72.5c0,0,0,0.1,0,0.1c0,0-0.1,0.1-0.1,0.1c-0.1,0-0.2,0-0.2,0.1c-0.1,0-0.2,0-0.4,0
					c-0.1,0-0.3,0-0.4,0c-0.1,0-0.2,0-0.2-0.1c-0.1,0-0.1,0-0.1-0.1c0,0,0-0.1,0-0.1v-5c0-0.3,0-0.6-0.1-1c-0.1-0.3-0.2-0.5-0.3-0.7
					c-0.1-0.2-0.3-0.4-0.5-0.5c-0.2-0.1-0.5-0.2-0.7-0.2c-0.3,0-0.7,0.1-1,0.4c-0.4,0.3-0.7,0.7-1.2,1.2v5.8c0,0,0,0.1,0,0.1
					c0,0-0.1,0.1-0.1,0.1c-0.1,0-0.2,0-0.2,0.1c-0.2,0-0.5,0-0.7,0c-0.1,0-0.2,0-0.2-0.1c-0.1,0-0.1,0-0.1-0.1c0,0,0-0.1,0-0.1v-5
					c0-0.3,0-0.6-0.1-1c-0.1-0.3-0.2-0.5-0.3-0.7c-0.1-0.2-0.3-0.4-0.5-0.5c-0.2-0.1-0.5-0.2-0.7-0.2c-0.3,0-0.7,0.1-1.1,0.4
					c-0.4,0.3-0.7,0.7-1.2,1.2v5.8c0,0,0,0.1,0,0.1c0,0-0.1,0.1-0.1,0.1c-0.1,0-0.2,0-0.2,0.1c-0.1,0-0.3,0-0.4,0
					c-0.1,0-0.2,0-0.4,0c-0.1,0-0.2,0-0.2-0.1c-0.1,0-0.1,0-0.1-0.1c0,0,0-0.1,0-0.1v-8.3c0,0,0-0.1,0-0.1c0,0,0.1-0.1,0.1-0.1
					c0.1,0,0.1-0.1,0.2-0.1c0.1,0,0.2,0,0.3,0c0.1,0,0.2,0,0.3,0c0.1,0,0.1,0,0.2,0.1c0,0,0.1,0.1,0.1,0.1c0,0,0,0.1,0,0.1v1.1
					c0.5-0.5,0.9-0.9,1.4-1.1c0.4-0.2,0.9-0.4,1.3-0.4c0.3,0,0.6,0,0.9,0.1c0.3,0.1,0.5,0.2,0.7,0.3c0.2,0.1,0.4,0.3,0.5,0.5
					c0.2,0.2,0.3,0.4,0.4,0.7c0.2-0.3,0.5-0.5,0.8-0.8c0.2-0.2,0.5-0.4,0.7-0.5c0.2-0.1,0.4-0.2,0.7-0.3c0.2-0.1,0.4-0.1,0.7-0.1
					c0.5,0,1,0.1,1.3,0.3c0.3,0.2,0.6,0.4,0.9,0.7c0.2,0.3,0.4,0.7,0.5,1.1c0.1,0.4,0.1,0.9,0.1,1.3L102.1,72.5z"/>
				<path id="e_16_" class="st0" d="M111.9,68c0,0.2-0.1,0.4-0.2,0.5c-0.1,0.1-0.3,0.2-0.4,0.2h-5.4c0,0.4,0,0.8,0.1,1.2
					c0.1,0.3,0.2,0.7,0.5,0.9c0.2,0.3,0.5,0.5,0.8,0.6c0.3,0.1,0.8,0.2,1.3,0.2c0.4,0,0.7,0,1-0.1c0.3-0.1,0.5-0.1,0.8-0.2
					c0.2-0.1,0.4-0.2,0.6-0.2c0.1-0.1,0.2-0.1,0.3-0.1c0,0,0.1,0,0.1,0c0,0,0.1,0.1,0.1,0.1c0,0.1,0,0.1,0,0.2c0,0.1,0,0.2,0,0.3
					c0,0.1,0,0.1,0,0.2c0,0.1,0,0.1,0,0.2c0,0,0,0.1,0,0.1c0,0-0.1,0.1-0.1,0.1c0,0-0.1,0.1-0.3,0.2c-0.2,0.1-0.4,0.2-0.6,0.2
					c-0.3,0.1-0.6,0.1-0.9,0.2c-0.4,0.1-0.7,0.1-1.1,0.1c-0.7,0-1.3-0.1-1.8-0.3c-0.5-0.2-0.9-0.5-1.3-0.8c-0.4-0.4-0.6-0.8-0.8-1.4
					c-0.2-0.6-0.3-1.2-0.3-2c0-0.7,0.1-1.3,0.3-1.9c0.2-0.5,0.4-1,0.8-1.4c0.3-0.4,0.8-0.7,1.3-0.9c0.5-0.2,1.1-0.3,1.6-0.3
					c0.6,0,1.2,0.1,1.7,0.3c0.4,0.2,0.8,0.5,1.1,0.8c0.3,0.4,0.5,0.8,0.6,1.2c0.1,0.5,0.2,1,0.2,1.5L111.9,68z M110.4,67.5
					c0-0.8-0.2-1.4-0.5-1.9c-0.4-0.5-0.9-0.7-1.7-0.7c-0.3,0-0.7,0.1-1,0.2c-0.3,0.1-0.5,0.3-0.7,0.6c-0.2,0.2-0.3,0.5-0.4,0.8
					c-0.1,0.3-0.2,0.6-0.2,1L110.4,67.5L110.4,67.5z"/>
				<path id="c_8_" class="st0" d="M122.3,71c0,0.1,0,0.2,0,0.3c0,0.1,0,0.1,0,0.2c0,0.1,0,0.1-0.1,0.1c0,0.1-0.1,0.1-0.1,0.2
					c-0.1,0.1-0.3,0.2-0.4,0.3c-0.2,0.1-0.5,0.3-0.7,0.4c-0.3,0.1-0.7,0.2-1,0.3c-0.4,0.1-0.8,0.1-1.2,0.1c-0.8,0-1.5-0.1-2.1-0.4
					c-0.6-0.3-1.2-0.6-1.6-1.1c-0.4-0.5-0.8-1.1-1-1.9c-0.2-0.7-0.4-1.6-0.4-2.5c0-1,0.1-1.9,0.4-2.6c0.3-0.8,0.6-1.4,1.1-2
					c0.4-0.5,1-0.9,1.6-1.2c0.6-0.3,1.3-0.4,2.1-0.4c0.3,0,0.7,0,1,0.1c0.3,0.1,0.6,0.1,0.9,0.2c0.3,0.1,0.5,0.2,0.7,0.3
					c0.2,0.1,0.3,0.2,0.4,0.3c0.1,0.1,0.1,0.1,0.2,0.2c0,0,0,0.1,0.1,0.2c0,0.1,0,0.1,0,0.2c0,0.1,0,0.2,0,0.3c0,0.1,0,0.2,0,0.3
					c0,0.1,0,0.1-0.1,0.2c0,0.1-0.1,0.1-0.1,0.1c0,0-0.1,0-0.1,0c-0.1,0-0.2-0.1-0.4-0.2c-0.2-0.1-0.4-0.3-0.6-0.4
					c-0.3-0.2-0.6-0.3-0.9-0.4c-0.3-0.1-0.8-0.2-1.2-0.2c-0.5,0-1,0.1-1.4,0.3c-0.4,0.2-0.8,0.5-1.1,0.9c-0.3,0.4-0.5,0.9-0.7,1.5
					c-0.2,0.6-0.3,1.3-0.3,2c0,0.8,0.1,1.4,0.2,2c0.2,0.6,0.4,1.1,0.7,1.5c0.3,0.4,0.7,0.7,1.1,0.9c0.4,0.2,0.9,0.3,1.5,0.3
					c0.4,0,0.8-0.1,1.2-0.2c0.3-0.1,0.6-0.2,0.9-0.4c0.2-0.1,0.4-0.3,0.6-0.4c0.2-0.1,0.3-0.2,0.4-0.2c0,0,0.1,0,0.1,0
					c0,0,0.1,0.1,0.1,0.1c0,0.1,0,0.1,0,0.2C122.3,70.8,122.3,70.9,122.3,71z"/>
				<path id="a_8_" class="st0" d="M130.5,72.5c0,0.1,0,0.1-0.1,0.2c-0.1,0-0.1,0.1-0.2,0.1c-0.1,0-0.3,0-0.4,0c-0.1,0-0.3,0-0.4,0
					c-0.1,0-0.1,0-0.2-0.1c0,0-0.1-0.1-0.1-0.2v-0.8c-0.3,0.4-0.8,0.7-1.2,0.9c-0.4,0.2-0.9,0.3-1.4,0.3c-0.4,0-0.8-0.1-1.2-0.2
					c-0.3-0.1-0.6-0.3-0.9-0.5c-0.3-0.2-0.4-0.5-0.6-0.8c-0.1-0.3-0.2-0.7-0.2-1.1c0-0.5,0.1-0.9,0.3-1.2c0.2-0.4,0.5-0.6,0.8-0.9
					c0.4-0.2,0.8-0.4,1.3-0.5c0.6-0.1,1.2-0.2,1.7-0.2h1.1V67c0-0.3,0-0.6-0.1-0.8c-0.1-0.2-0.2-0.4-0.3-0.6
					c-0.2-0.2-0.4-0.3-0.6-0.4c-0.3-0.1-0.6-0.1-0.9-0.1c-0.3,0-0.7,0-1,0.1c-0.3,0.1-0.5,0.2-0.8,0.3c-0.2,0.1-0.4,0.2-0.6,0.3
					s-0.3,0.1-0.3,0.1c0,0-0.1,0-0.1,0c0,0-0.1-0.1-0.1-0.1c0-0.1-0.1-0.1-0.1-0.2c0-0.1,0-0.2,0-0.3c0-0.1,0-0.2,0-0.4
					c0-0.1,0.1-0.2,0.2-0.3c0.1-0.1,0.3-0.2,0.4-0.3c0.2-0.1,0.5-0.2,0.7-0.3c0.3-0.1,0.6-0.2,0.9-0.2c0.3-0.1,0.6-0.1,0.9-0.1
					c0.6,0,1.1,0.1,1.5,0.2c0.4,0.1,0.8,0.3,1,0.6c0.3,0.3,0.5,0.6,0.6,1c0.1,0.4,0.2,0.9,0.2,1.4L130.5,72.5z M129,68.7h-1.3
					c-0.4,0-0.7,0-1.1,0.1c-0.3,0.1-0.5,0.2-0.8,0.3c-0.2,0.1-0.3,0.3-0.4,0.5c-0.1,0.2-0.1,0.4-0.1,0.7c0,0.4,0.1,0.8,0.4,1
					c0.3,0.3,0.7,0.4,1.1,0.4c0.4,0,0.8-0.1,1.1-0.3c0.3-0.2,0.7-0.5,1.1-0.9L129,68.7z"/>
				<path id="r_8_" class="st0" d="M138.1,64.7c0,0.1,0,0.2,0,0.3c0,0.1,0,0.1,0,0.2c0,0,0,0.1-0.1,0.1c0,0-0.1,0-0.1,0
					c-0.1,0-0.1,0-0.2,0c-0.1,0-0.2-0.1-0.2-0.1c-0.1,0-0.2-0.1-0.3-0.1c-0.1,0-0.2,0-0.4,0c-0.2,0-0.3,0-0.5,0.1
					c-0.2,0.1-0.3,0.2-0.5,0.3c-0.2,0.2-0.4,0.4-0.5,0.6c-0.2,0.2-0.4,0.5-0.6,0.9v5.4c0,0,0,0.1,0,0.1c0,0-0.1,0.1-0.1,0.1
					c-0.1,0-0.2,0-0.2,0.1c-0.1,0-0.3,0-0.4,0c-0.1,0-0.2,0-0.4,0c-0.1,0-0.2,0-0.2-0.1c0,0-0.1,0-0.1-0.1c0,0,0-0.1,0-0.1v-8.3
					c0,0,0-0.1,0-0.1c0,0,0.1-0.1,0.1-0.1c0.1,0,0.1-0.1,0.2-0.1c0.1,0,0.2,0,0.3,0c0.1,0,0.2,0,0.3,0c0.1,0,0.1,0,0.2,0.1
					c0,0,0.1,0.1,0.1,0.1c0,0,0,0.1,0,0.1v1.2c0.2-0.3,0.4-0.6,0.6-0.8c0.2-0.2,0.4-0.3,0.6-0.5c0.2-0.1,0.3-0.2,0.5-0.2
					c0.2,0,0.4-0.1,0.5-0.1c0.1,0,0.2,0,0.3,0c0.1,0,0.2,0,0.3,0.1c0.1,0,0.2,0.1,0.3,0.1c0.1,0,0.1,0.1,0.2,0.1
					c0,0,0.1,0.1,0.1,0.1c0,0,0,0.1,0,0.1c0,0.1,0,0.1,0,0.2C138.1,64.5,138.1,64.6,138.1,64.7z"/>
				<path id="e_15_" class="st0" d="M146.6,68c0,0.2-0.1,0.4-0.2,0.5c-0.1,0.1-0.3,0.2-0.4,0.2h-5.4c0,0.4,0,0.8,0.1,1.2
					c0.1,0.3,0.2,0.7,0.5,0.9c0.2,0.3,0.5,0.5,0.8,0.6c0.3,0.1,0.8,0.2,1.3,0.2c0.4,0,0.7,0,1.1-0.1c0.3-0.1,0.5-0.1,0.8-0.2
					c0.2-0.1,0.4-0.2,0.6-0.2c0.1-0.1,0.2-0.1,0.3-0.1c0.1,0,0.2,0.1,0.2,0.1c0,0.1,0,0.1,0,0.2c0,0.1,0,0.2,0,0.3
					c0,0.1,0,0.1,0,0.2c0,0.1,0,0.1,0,0.2c0,0,0,0.1,0,0.1c0,0-0.1,0.1-0.1,0.1c0,0-0.1,0.1-0.3,0.2c-0.2,0.1-0.4,0.2-0.6,0.2
					c-0.3,0.1-0.6,0.1-0.9,0.2c-0.4,0.1-0.7,0.1-1.1,0.1c-0.7,0-1.3-0.1-1.8-0.3c-0.5-0.2-0.9-0.5-1.3-0.8c-0.3-0.4-0.6-0.8-0.8-1.4
					c-0.2-0.6-0.3-1.2-0.3-2c0-0.7,0.1-1.3,0.3-1.9c0.2-0.5,0.4-1,0.8-1.4c0.3-0.4,0.8-0.7,1.3-0.9c0.5-0.2,1.1-0.3,1.6-0.3
					c0.6,0,1.2,0.1,1.7,0.3c0.4,0.2,0.8,0.5,1.1,0.8c0.3,0.4,0.5,0.8,0.6,1.2c0.1,0.5,0.2,1,0.2,1.5L146.6,68z M145.1,67.5
					c0-0.8-0.2-1.4-0.5-1.9c-0.4-0.5-0.9-0.7-1.7-0.7c-0.3,0-0.7,0.1-1,0.2c-0.3,0.1-0.5,0.3-0.7,0.6c-0.2,0.2-0.3,0.5-0.4,0.8
					c-0.1,0.3-0.2,0.6-0.2,1L145.1,67.5L145.1,67.5z"/>
			</g>
		</g>
	</g>
</g>
</svg>
